<svg width="800" height="800" viewBox="0 0 800 800" fill="none" xmlns="http://www.w3.org/2000/svg">
<g clip-path="url(#clip0_24090_15286)">
<path d="M800 0H0V800H800V0Z" fill="white"/>
<path d="M100 366.357C115.657 361.136 132.784 357.14 151.257 355.196C205.724 349.469 238.415 365.217 271.979 382.51C303.086 398.528 334.938 415.85 385.579 418.628C442.475 421.74 484.352 404.347 523.126 386.299C572.606 363.266 617.02 339.163 681.147 355.196C687.696 356.834 693.973 358.764 699.993 360.951" stroke="black" stroke-width="21.4286" stroke-miterlimit="10" stroke-linecap="round"/>
<path d="M100 405.056C113.522 409.08 128.068 412.157 143.554 413.788C202.17 419.942 235.57 401.231 271.979 382.507C300.75 367.706 331.405 352.899 377.876 350.363C438.556 347.044 482.152 367.051 523.126 386.303C569.582 408.133 612.663 428.987 673.444 413.795C682.831 411.438 691.688 408.475 700 405.077" stroke="black" stroke-width="21.4286" stroke-miterlimit="10" stroke-linecap="round"/>
<g opacity="0.5">
<path d="M100 372.411C115.657 367.191 132.784 363.195 151.257 361.251C205.724 355.524 238.415 371.272 271.979 388.565C303.086 404.583 334.938 421.905 385.579 424.682C442.475 427.795 484.352 410.402 523.126 392.354C572.606 369.32 617.02 345.218 681.147 361.251C687.696 362.889 693.973 364.819 699.993 367.005" stroke="black" stroke-width="21.4286" stroke-miterlimit="10" stroke-linecap="round"/>
<path d="M100 411.111C113.522 415.135 128.068 418.212 143.554 419.843C202.17 425.997 235.57 407.286 271.979 388.561C300.75 373.761 331.405 358.954 377.876 356.418C438.556 353.099 482.152 373.106 523.126 392.358C569.582 414.188 612.663 435.042 673.444 419.85C682.831 417.492 691.688 414.529 700 411.132" stroke="black" stroke-width="21.4286" stroke-miterlimit="10" stroke-linecap="round"/>
</g>
</g>
<defs>
<clipPath id="clip0_24090_15286">
<rect width="800" height="800" fill="white"/>
</clipPath>
</defs>
</svg>
